<?xml version="1.0" encoding="UTF-8" standalone="no"?>
<!-- Created with Inkscape (http://www.inkscape.org/) -->

<svg
   xmlns:dc="http://purl.org/dc/elements/1.1/"
   xmlns:cc="http://creativecommons.org/ns#"
   xmlns:rdf="http://www.w3.org/1999/02/22-rdf-syntax-ns#"
   xmlns:svg="http://www.w3.org/2000/svg"
   xmlns="http://www.w3.org/2000/svg"
   xmlns:sodipodi="http://sodipodi.sourceforge.net/DTD/sodipodi-0.dtd"
   xmlns:inkscape="http://www.inkscape.org/namespaces/inkscape"
   width="128"
   height="128"
   id="svg2"
   version="1.1"
   inkscape:version="0.48.2 r9819"
   sodipodi:docname="icon.svg"
   inkscape:export-filename="/Users/MaskedPixel/Development/haxe/weeklys/Week01/assets/icon512x512.png"
   inkscape:export-xdpi="360"
   inkscape:export-ydpi="360">
  <defs
     id="defs4" />
  <sodipodi:namedview
     id="base"
     pagecolor="#000000"
     bordercolor="#666666"
     borderopacity="1.0"
     inkscape:pageopacity="0"
     inkscape:pageshadow="2"
     inkscape:zoom="3.959798"
     inkscape:cx="60.070543"
     inkscape:cy="63.270051"
     inkscape:document-units="px"
     inkscape:current-layer="layer1"
     showgrid="true"
     inkscape:window-width="810"
     inkscape:window-height="806"
     inkscape:window-x="0"
     inkscape:window-y="0"
     inkscape:window-maximized="0">
    <inkscape:grid
       type="xygrid"
       id="grid2985"
       empspacing="1"
       visible="true"
       enabled="true"
       snapvisiblegridlinesonly="true"
       spacingx="16px"
       spacingy="16px"
       dotted="true" />
  </sodipodi:namedview>
  <metadata
     id="metadata7">
    <rdf:RDF>
      <cc:Work
         rdf:about="">
        <dc:format>image/svg+xml</dc:format>
        <dc:type
           rdf:resource="http://purl.org/dc/dcmitype/StillImage" />
        <dc:title></dc:title>
      </cc:Work>
    </rdf:RDF>
  </metadata>
  <g
     inkscape:label="Layer 1"
     inkscape:groupmode="layer"
     id="layer1"
     transform="translate(0,-924.3622)">
    <path
       inkscape:connector-curvature="0"
       style="fill:#00aad4;fill-opacity:1;stroke:none"
       d="m 32,924.3622 16,0 0,16 -16,0 z"
       id="rect2987-6" />
    <path
       inkscape:connector-curvature="0"
       style="fill:#00aad4;fill-opacity:1;stroke:none"
       d="m 80,924.3622 16,0 0,16 -16,0 z"
       id="rect2987-6-9" />
    <path
       inkscape:connector-curvature="0"
       style="fill:#00aad4;fill-opacity:1;stroke:none"
       d="m 80,940.3622 16,0 0,16 -16,0 z"
       id="rect2987-6-99" />
    <path
       inkscape:connector-curvature="0"
       style="fill:#00aad4;fill-opacity:1;stroke:none"
       d="m 80,956.3622 16,0 0,16 -16,0 z"
       id="rect2987-6-1" />
    <path
       inkscape:connector-curvature="0"
       style="fill:#00aad4;fill-opacity:1;stroke:none"
       d="m 80,972.3622 16,0 0,16 -16,0 z"
       id="rect2987-6-7" />
    <path
       inkscape:connector-curvature="0"
       style="fill:#00aad4;fill-opacity:1;stroke:none"
       d="m 80,988.3622 16,0 0,16 -16,0 z"
       id="rect2987-6-2" />
    <path
       inkscape:connector-curvature="0"
       style="fill:#00aad4;fill-opacity:1;stroke:none"
       d="m 80,1004.3622 16,0 0,16 -16,0 z"
       id="rect2987-6-3" />
    <path
       inkscape:connector-curvature="0"
       style="fill:#00aad4;fill-opacity:1;stroke:none"
       d="m 80,1020.3622 16,0 0,16 -16,0 z"
       id="rect2987-6-6" />
    <path
       inkscape:connector-curvature="0"
       style="fill:#00aad4;fill-opacity:1;stroke:none"
       d="m 64,1020.3622 16,0 0,16 -16,0 z"
       id="rect2987-6-5" />
    <path
       inkscape:connector-curvature="0"
       style="fill:#00aad4;fill-opacity:1;stroke:none"
       d="m 48,1020.3622 16,0 0,16 -16,0 z"
       id="rect2987-6-58" />
    <path
       inkscape:connector-curvature="0"
       style="fill:#00aad4;fill-opacity:1;stroke:none"
       d="m 32,1020.3622 16,0 0,16 -16,0 z"
       id="rect2987-6-14" />
    <path
       inkscape:connector-curvature="0"
       style="fill:#00aad4;fill-opacity:1;stroke:none"
       d="m 32,1004.3622 16,0 0,16 -16,0 z"
       id="rect2987-6-71" />
    <path
       inkscape:connector-curvature="0"
       style="fill:#00aad4;fill-opacity:1;stroke:none"
       d="m 32,988.3622 16,0 0,16 -16,0 z"
       id="rect2987-6-38" />
    <path
       inkscape:connector-curvature="0"
       style="fill:#00aad4;fill-opacity:1;stroke:none"
       d="m 32,972.3622 16,0 0,16 -16,0 z"
       id="rect2987-6-4" />
    <path
       inkscape:connector-curvature="0"
       style="fill:#00aad4;fill-opacity:1;stroke:none"
       d="m 32,956.3622 16,0 0,16 -16,0 z"
       id="rect2987-6-8" />
    <path
       inkscape:connector-curvature="0"
       style="fill:#00aad4;fill-opacity:1;stroke:none"
       d="m 32,940.3622 16,0 0,16 -16,0 z"
       id="rect2987-6-0" />
    <path
       inkscape:connector-curvature="0"
       style="fill:#00aad4;fill-opacity:1;stroke:none"
       d="m 48,956.3622 16,0 0,16 -16,0 z"
       id="rect2987-6-46" />
    <path
       inkscape:connector-curvature="0"
       style="fill:#00aad4;fill-opacity:1;stroke:none"
       d="m 64,956.3622 16,0 0,16 -16,0 z"
       id="rect2987-6-03" />
    <path
       inkscape:connector-curvature="0"
       style="fill:#00aad4;fill-opacity:1;stroke:none"
       d="m 64,972.3622 16,0 0,16 -16,0 z"
       id="rect2987-6-26" />
    <path
       inkscape:connector-curvature="0"
       style="fill:#00aad4;fill-opacity:1;stroke:none"
       d="m 48,972.3622 16,0 0,16 -16,0 z"
       id="rect2987-6-94" />
    <path
       inkscape:connector-curvature="0"
       style="fill:#00aad4;fill-opacity:1;stroke:none"
       d="m 48,1004.3622 16,0 0,16 -16,0 z"
       id="rect2987-6-13" />
    <path
       inkscape:connector-curvature="0"
       style="fill:#00aad4;fill-opacity:1;stroke:none"
       d="m 64,988.3622 16,0 0,16 -16,0 z"
       id="rect2987-6-78" />
    <path
       inkscape:connector-curvature="0"
       style="fill:#00aad4;fill-opacity:1;stroke:none"
       d="m 64,1004.3622 16,0 0,16 -16,0 z"
       id="rect2987-6-83" />
    <path
       inkscape:connector-curvature="0"
       style="fill:#00aad4;fill-opacity:1;stroke:none"
       d="m 48,988.3622 16,0 0,16 -16,0 z"
       id="rect2987-6-81" />
    <path
       inkscape:connector-curvature="0"
       style="fill:#00aad4;fill-opacity:1;stroke:none"
       d="m 16,988.3622 16,0 0,16 -16,0 z"
       id="rect2987-6-53" />
    <path
       inkscape:connector-curvature="0"
       style="fill:#00aad4;fill-opacity:1;stroke:none"
       d="m 16,1004.3622 16,0 0,16 -16,0 z"
       id="rect2987-6-54" />
    <path
       inkscape:connector-curvature="0"
       style="fill:#00aad4;fill-opacity:1;stroke:none"
       d="m 16,1020.3622 16,0 0,16 -16,0 z"
       id="rect2987-6-36" />
    <path
       inkscape:connector-curvature="0"
       style="fill:#00aad4;fill-opacity:1;stroke:none"
       d="m 16,1036.3622 16,0 0,16 -16,0 z"
       id="rect2987-6-59" />
    <path
       inkscape:connector-curvature="0"
       style="fill:#00aad4;fill-opacity:1;stroke:none"
       d="m 0,1036.3622 16,0 0,16 -16,0 z"
       id="rect2987-6-549" />
    <path
       inkscape:connector-curvature="0"
       style="fill:#00aad4;fill-opacity:1;stroke:none"
       d="m 96,988.3622 16,0 0,16 -16,0 z"
       id="rect2987-6-17" />
    <path
       inkscape:connector-curvature="0"
       style="fill:#00aad4;fill-opacity:1;stroke:none"
       d="m 96,1004.3622 16,0 0,16 -16,0 z"
       id="rect2987-6-55" />
    <path
       inkscape:connector-curvature="0"
       style="fill:#00aad4;fill-opacity:1;stroke:none"
       d="m 96,1020.3622 16,0 0,16 -16,0 z"
       id="rect2987-6-41" />
    <path
       inkscape:connector-curvature="0"
       style="fill:#00aad4;fill-opacity:1;stroke:none"
       d="m 96,1036.3622 16,0 0,16 -16,0 z"
       id="rect2987-6-88" />
    <path
       inkscape:connector-curvature="0"
       style="fill:#00aad4;fill-opacity:1;stroke:none"
       d="m 112,1036.3622 16,0 0,16 -16,0 z"
       id="rect2987-6-35" />
  </g>
</svg>
