<?xml version="1.0" encoding="UTF-8" standalone="no"?>
<!-- Created with Inkscape (http://www.inkscape.org/) -->

<svg
   xmlns:dc="http://purl.org/dc/elements/1.1/"
   xmlns:cc="http://creativecommons.org/ns#"
   xmlns:rdf="http://www.w3.org/1999/02/22-rdf-syntax-ns#"
   xmlns:svg="http://www.w3.org/2000/svg"
   xmlns="http://www.w3.org/2000/svg"
   xmlns:sodipodi="http://sodipodi.sourceforge.net/DTD/sodipodi-0.dtd"
   xmlns:inkscape="http://www.inkscape.org/namespaces/inkscape"
   width="128"
   height="128"
   id="svg2"
   version="1.1"
   inkscape:version="0.48.2 r9819"
   sodipodi:docname="New document 1">
  <defs
     id="defs4" />
  <sodipodi:namedview
     id="base"
     pagecolor="#000000"
     bordercolor="#666666"
     borderopacity="1.0"
     inkscape:pageopacity="0"
     inkscape:pageshadow="2"
     inkscape:zoom="3.959798"
     inkscape:cx="65.339341"
     inkscape:cy="62.976706"
     inkscape:document-units="px"
     inkscape:current-layer="layer1"
     showgrid="true"
     inkscape:window-width="810"
     inkscape:window-height="806"
     inkscape:window-x="0"
     inkscape:window-y="0"
     inkscape:window-maximized="0">
    <inkscape:grid
       type="xygrid"
       id="grid2985"
       empspacing="1"
       visible="true"
       enabled="true"
       snapvisiblegridlinesonly="true"
       spacingx="16px"
       spacingy="16px"
       dotted="true" />
  </sodipodi:namedview>
  <metadata
     id="metadata7">
    <rdf:RDF>
      <cc:Work
         rdf:about="">
        <dc:format>image/svg+xml</dc:format>
        <dc:type
           rdf:resource="http://purl.org/dc/dcmitype/StillImage" />
        <dc:title></dc:title>
      </cc:Work>
    </rdf:RDF>
  </metadata>
  <g
     inkscape:label="Layer 1"
     inkscape:groupmode="layer"
     id="layer1"
     transform="translate(0,-924.3622)">
    <path
       style="fill:#ffffff;fill-opacity:1;stroke:none"
       d="m 64,956.3622 16,0 0,16 -16,0 z"
       id="rect2987"
       inkscape:connector-curvature="0" />
    <path
       inkscape:connector-curvature="0"
       style="fill:#ffffff;fill-opacity:1;stroke:none"
       d="m 64,988.3622 16,0 0,16 -16,0 z"
       id="rect2987-5" />
    <path
       inkscape:connector-curvature="0"
       style="fill:#ffffff;fill-opacity:1;stroke:none"
       d="m 64,972.3622 16,0 0,16 -16,0 z"
       id="rect2987-4" />
    <path
       inkscape:connector-curvature="0"
       style="fill:#ffffff;fill-opacity:1;stroke:none"
       d="m 64,924.3622 16,0 0,16 -16,0 z"
       id="rect2987-3" />
    <path
       inkscape:connector-curvature="0"
       style="fill:#ffffff;fill-opacity:1;stroke:none"
       d="m 48,924.3622 16,0 0,16 -16,0 z"
       id="rect2987-6" />
    <path
       inkscape:connector-curvature="0"
       style="fill:#ffffff;fill-opacity:1;stroke:none"
       d="m 16,940.3622 16,0 0,16 -16,0 z"
       id="rect2987-43" />
    <path
       inkscape:connector-curvature="0"
       style="fill:#ffffff;fill-opacity:1;stroke:none"
       d="m 32,940.3622 16,0 0,16 -16,0 z"
       id="rect2987-8" />
    <path
       inkscape:connector-curvature="0"
       style="fill:#ffffff;fill-opacity:1;stroke:none"
       d="m 48,940.3622 16,0 0,16 -16,0 z"
       id="rect2987-40" />
    <path
       inkscape:connector-curvature="0"
       style="fill:#ffffff;fill-opacity:1;stroke:none"
       d="m 64,940.3622 16,0 0,16 -16,0 z"
       id="rect2987-0" />
    <path
       inkscape:connector-curvature="0"
       style="fill:#ffffff;fill-opacity:1;stroke:none"
       d="m 80,940.3622 16,0 0,16 -16,0 z"
       id="rect2987-9" />
    <path
       inkscape:connector-curvature="0"
       style="fill:#ffffff;fill-opacity:1;stroke:none"
       d="m 96,940.3622 16,0 0,16 -16,0 z"
       id="rect2987-37" />
    <path
       inkscape:connector-curvature="0"
       style="fill:#ffffff;fill-opacity:1;stroke:none"
       d="m 96,956.3622 16,0 0,16 -16,0 z"
       id="rect2987-57" />
    <path
       inkscape:connector-curvature="0"
       style="fill:#ffffff;fill-opacity:1;stroke:none"
       d="m 96,972.3622 16,0 0,16 -16,0 z"
       id="rect2987-2" />
    <path
       inkscape:connector-curvature="0"
       style="fill:#ffffff;fill-opacity:1;stroke:none"
       d="m 96,988.3622 16,0 0,16 -16,0 z"
       id="rect2987-97" />
    <path
       inkscape:connector-curvature="0"
       style="fill:#ffffff;fill-opacity:1;stroke:none"
       d="m 96,1004.3622 16,0 0,16 -16,0 z"
       id="rect2987-56" />
    <path
       inkscape:connector-curvature="0"
       style="fill:#ffffff;fill-opacity:1;stroke:none"
       d="m 96,1020.3622 16,0 0,16 -16,0 z"
       id="rect2987-53" />
    <path
       inkscape:connector-curvature="0"
       style="fill:#ffffff;fill-opacity:1;stroke:none"
       d="m 80,1020.3622 16,0 0,16 -16,0 z"
       id="rect2987-04" />
    <path
       inkscape:connector-curvature="0"
       style="fill:#ffffff;fill-opacity:1;stroke:none"
       d="m 64,1020.3622 16,0 0,16 -16,0 z"
       id="rect2987-85" />
    <path
       inkscape:connector-curvature="0"
       style="fill:#ffffff;fill-opacity:1;stroke:none"
       d="m 48,1020.3622 16,0 0,16 -16,0 z"
       id="rect2987-55" />
    <path
       inkscape:connector-curvature="0"
       style="fill:#ffffff;fill-opacity:1;stroke:none"
       d="m 32,1020.3622 16,0 0,16 -16,0 z"
       id="rect2987-42" />
    <path
       inkscape:connector-curvature="0"
       style="fill:#ffffff;fill-opacity:1;stroke:none"
       d="m 16,1020.3622 16,0 0,16 -16,0 z"
       id="rect2987-1" />
    <path
       inkscape:connector-curvature="0"
       style="fill:#ffffff;fill-opacity:1;stroke:none"
       d="m 16,1004.3622 16,0 0,16 -16,0 z"
       id="rect2987-92" />
    <path
       inkscape:connector-curvature="0"
       style="fill:#ffffff;fill-opacity:1;stroke:none"
       d="m 16,988.3622 16,0 0,16 -16,0 z"
       id="rect2987-45" />
    <path
       inkscape:connector-curvature="0"
       style="fill:#ffffff;fill-opacity:1;stroke:none"
       d="m 16,972.3622 16,0 0,16 -16,0 z"
       id="rect2987-86" />
    <path
       inkscape:connector-curvature="0"
       style="fill:#ffffff;fill-opacity:1;stroke:none"
       d="m 16,956.3622 16,0 0,16 -16,0 z"
       id="rect2987-25" />
    <path
       inkscape:connector-curvature="0"
       style="fill:#ffffff;fill-opacity:1;stroke:none"
       d="m 48,956.3622 16,0 0,16 -16,0 z"
       id="rect2987-13" />
    <path
       inkscape:connector-curvature="0"
       style="fill:#ffffff;fill-opacity:1;stroke:none"
       d="m 48,972.3622 16,0 0,16 -16,0 z"
       id="rect2987-973" />
    <path
       inkscape:connector-curvature="0"
       style="fill:#ffffff;fill-opacity:1;stroke:none"
       d="m 48,988.3622 16,0 0,16 -16,0 z"
       id="rect2987-7" />
    <path
       inkscape:connector-curvature="0"
       style="fill:#ffffff;fill-opacity:1;stroke:none"
       d="m 48,1004.3622 16,0 0,16 -16,0 z"
       id="rect2987-50" />
    <path
       inkscape:connector-curvature="0"
       style="fill:#ffffff;fill-opacity:1;stroke:none"
       d="m 64,1004.3622 16,0 0,16 -16,0 z"
       id="rect2987-21" />
    <path
       inkscape:connector-curvature="0"
       style="fill:#ffffff;fill-opacity:1;stroke:none"
       d="m 80,972.3622 16,0 0,16 -16,0 z"
       id="rect2987-87" />
    <path
       inkscape:connector-curvature="0"
       style="fill:#ffffff;fill-opacity:1;stroke:none"
       d="m 80,988.3622 16,0 0,16 -16,0 z"
       id="rect2987-15" />
    <path
       inkscape:connector-curvature="0"
       style="fill:#ffffff;fill-opacity:1;stroke:none"
       d="m 32,972.3622 16,0 0,16 -16,0 z"
       id="rect2987-58" />
    <path
       inkscape:connector-curvature="0"
       style="fill:#ffffff;fill-opacity:1;stroke:none"
       d="m 32,988.3622 16,0 0,16 -16,0 z"
       id="rect2987-567" />
    <path
       inkscape:connector-curvature="0"
       style="fill:#ffffff;fill-opacity:1;stroke:none"
       d="m 0,972.3622 16,0 0,16 -16,0 z"
       id="rect2987-94" />
    <path
       inkscape:connector-curvature="0"
       style="fill:#ffffff;fill-opacity:1;stroke:none"
       d="m 0,988.3622 16,0 0,16 -16,0 z"
       id="rect2987-16" />
    <path
       inkscape:connector-curvature="0"
       style="fill:#ffffff;fill-opacity:1;stroke:none"
       d="m 48,1036.3622 16,0 0,16 -16,0 z"
       id="rect2987-12" />
    <path
       inkscape:connector-curvature="0"
       style="fill:#ffffff;fill-opacity:1;stroke:none"
       d="m 64,1036.3622 16,0 0,16 -16,0 z"
       id="rect2987-044" />
    <path
       inkscape:connector-curvature="0"
       style="fill:#ffffff;fill-opacity:1;stroke:none"
       d="m 112,988.3622 16,0 0,16 -16,0 z"
       id="rect2987-59" />
    <path
       inkscape:connector-curvature="0"
       style="fill:#ffffff;fill-opacity:1;stroke:none"
       d="m 112,972.3622 16,0 0,16 -16,0 z"
       id="rect2987-75" />
  </g>
</svg>
